/* XPM */
static char *downArrow[] = {
/* width height ncolors chars_per_pixel */
"20 20 4 1",
/* colors */
"A c #FFFFFFFFFFFF",
"B s bg c None",
"C c #C0C0C0C0C0C0",
"D c #000000000000",
/* pixels */
"BBBBBBBBBBBBBBBBBBBB",
"BBBBBBBBBBBBBBBBBBBB",
"BBBBBBBBBBBBBBBBBBBB",
"BBBBBBBBBBBBBBBBBBBB",
"BBBBBBBBBBBBBBBBBBBB",
"BBBBBBBBBBBBBBBBBBBB",
"BBBBBBBBBBBBBBBBBBBB",
"BBDDDDDDDDDDDBBBBBBB",
"BBBDCACACACDBBBBBBBB",
"BBBBDCACACDBBBBBBBBB",
"BBBBBDCACDBBBBBBBBBB",
"BBBBBBDCDBBBBBBBBBBB",
"BBBBBBBDBBBBBBBBBBBB",
"BBBBBBBBBBBBBBBBBBBB",
"BBBBBBBBBBBBBBBBBBBB",
"BBBBBBBBBBBBBBBBBBBB",
"BBBBBBBBBBBBBBBBBBBB",
"BBBBBBBBBBBBBBBBBBBB",
"BBBBBBBBBBBBBBBBBBBB",
"BBBBBBBBBBBBBBBBBBBB"};
